<svg xmlns="http://www.w3.org/2000/svg" viewBox="0 0 256 256">
  <defs>
    <linearGradient id="g" x1="0" y1="0" x2="1" y2="1">
      <stop offset="0" stop-color="#ff58bd"/>
      <stop offset="1" stop-color="#731dff"/>
    </linearGradient>
    <filter id="glow" x="-50%" y="-50%" width="200%" height="200%">
      <feGaussianBlur stdDeviation="9" result="b"/>
      <feMerge><feMergeNode in="b"/><feMergeNode in="SourceGraphic"/></feMerge>
    </filter>
  </defs>
  <rect width="256" height="256" rx="62" fill="#09030f"/>
  <circle cx="128" cy="128" r="88" fill="none" stroke="url(#g)" stroke-width="18" filter="url(#glow)"/>
  <path d="M128 55c41 0 73 32 73 73s-32 73-73 73-73-32-73-73 32-73 73-73zm0 30c-24 0-43 19-43 43s19 43 43 43 43-19 43-43-19-43-43-43zm0 25c10 0 18 8 18 18s-8 18-18 18-18-8-18-18 8-18 18-18z" fill="url(#g)"/>
  <text x="128" y="234" fill="#ffd0f0" font-family="system-ui,sans-serif" font-size="28" font-weight="800" text-anchor="middle">SH</text>
</svg>
